<?xml version="1.0" standalone="no"?><!DOCTYPE svg PUBLIC "-//W3C//DTD SVG 1.1//EN" "http://www.w3.org/Graphics/SVG/1.1/DTD/svg11.dtd"><svg t="1588166330108" class="icon" viewBox="0 0 1024 1024" version="1.1" xmlns="http://www.w3.org/2000/svg" p-id="2861" xmlns:xlink="http://www.w3.org/1999/xlink" width="200" height="200"><defs><style type="text/css"></style></defs><path d="M512 68.384c-282.784 0-512 180.16-512 402.272 0 105.184 51.424 201.056 135.616 272.736-3.232 69.856-17.696 163.776-68.896 212.192 97.792 0 197.92-64.352 257.312-110.752 58.208 18.144 121.632 28.096 187.968 28.096 282.784 0 512-180.16 512-402.272S794.784 68.384 512 68.384z m-219.424 512c-40.448 0-73.152-32.704-73.152-73.152s32.704-73.152 73.152-73.152 73.152 32.704 73.152 73.152-32.704 73.152-73.152 73.152z m219.424 0c-40.448 0-73.152-32.704-73.152-73.152s32.704-73.152 73.152-73.152 73.152 32.704 73.152 73.152-32.704 73.152-73.152 73.152z m219.424 0c-40.448 0-73.152-32.704-73.152-73.152s32.704-73.152 73.152-73.152 73.152 32.704 73.152 73.152-32.704 73.152-73.152 73.152z" p-id="2862"></path></svg>