<?xml version="1.0" standalone="no"?><!DOCTYPE svg PUBLIC "-//W3C//DTD SVG 1.1//EN" "http://www.w3.org/Graphics/SVG/1.1/DTD/svg11.dtd"><svg t="1588066115136" class="icon" viewBox="0 0 1024 1024" version="1.1" xmlns="http://www.w3.org/2000/svg" p-id="9179" xmlns:xlink="http://www.w3.org/1999/xlink" width="200" height="200"><defs><style type="text/css"></style></defs><path d="M849.92 785.066667h-146.773333c-23.893333 0-47.786667-13.653333-61.44-34.133334l-75.093334-112.64c-6.826667-6.826667-3.413333-17.066667 3.413334-23.893333 6.826667-6.826667 17.066667-3.413333 23.893333 3.413333l75.093333 112.64c6.826667 10.24 20.48 17.066667 34.133334 17.066667h146.773333c10.24 0 17.066667 6.826667 17.066667 17.066667s-10.24 20.48-17.066667 20.48zM464.213333 474.453333c-6.826667 0-10.24-3.413333-13.653333-6.826666L307.2 256c-10.24-10.24-20.48-17.066667-37.546667-17.066667h-170.666666c-10.24 0-17.066667-10.24-17.066667-17.066666s6.826667-17.066667 17.066667-17.066667H273.066667c23.893333 0 47.786667 13.653333 61.44 34.133333l143.36 211.626667c6.826667 6.826667 3.413333 17.066667-3.413334 23.893333h-10.24z" p-id="9180"></path><path d="M860.16 887.466667c-3.413333 0-6.826667 0-10.24-3.413334-6.826667-6.826667-10.24-17.066667-3.413333-23.893333l64.853333-81.92c3.413333-3.413333 3.413333-10.24 0-17.066667l-64.853333-68.266666c-6.826667-6.826667-6.826667-17.066667 0-23.893334 6.826667-6.826667 17.066667-6.826667 23.893333 0l64.853333 68.266667c13.653333 17.066667 17.066667 40.96 3.413334 61.44l-64.853334 81.92c-3.413333 6.826667-10.24 6.826667-13.653333 6.826667zM269.653333 887.466667h-170.666666c-10.24 0-17.066667-6.826667-17.066667-17.066667s6.826667-17.066667 17.066667-17.066667H273.066667c13.653333 0 27.306667-6.826667 34.133333-17.066666L641.706667 341.333333c13.653333-20.48 37.546667-34.133333 61.44-34.133333h146.773333c10.24 0 17.066667 6.826667 17.066667 17.066667s-10.24 17.066667-17.066667 17.066666h-146.773333c-13.653333 0-27.306667 6.826667-34.133334 17.066667L334.506667 853.333333c-13.653333 23.893333-37.546667 34.133333-64.853334 34.133334z" p-id="9181"></path><path d="M860.16 426.666667c-3.413333 0-6.826667 0-10.24-3.413334-6.826667-6.826667-6.826667-17.066667 0-23.893333l64.853333-68.266667c3.413333-3.413333 3.413333-10.24 0-17.066666l-64.853333-81.92c-6.826667-6.826667-3.413333-17.066667 3.413333-23.893334 6.826667-6.826667 17.066667-3.413333 23.893334 3.413334l64.853333 81.92c13.653333 17.066667 13.653333 44.373333-3.413333 61.44l-64.853334 68.266666c-3.413333 3.413333-10.24 3.413333-13.653333 3.413334z" p-id="9182"></path></svg>