<?xml version="1.0" standalone="no"?><!DOCTYPE svg PUBLIC "-//W3C//DTD SVG 1.1//EN" "http://www.w3.org/Graphics/SVG/1.1/DTD/svg11.dtd"><svg t="1588065942894" class="icon" viewBox="0 0 1024 1024" version="1.1" xmlns="http://www.w3.org/2000/svg" p-id="5051" xmlns:xlink="http://www.w3.org/1999/xlink" width="200" height="200"><defs><style type="text/css"></style></defs><path d="M611.925333 279.338667c100.266667 40.832 298.666667 273.664 324.053334 472.32 9.301333 71.253333-5.717333 129.536-44.8 174.037333-29.013333 32.213333-68.565333 53.333333-114.133334 65.493333a311.893333 311.893333 0 0 1-74.24 10.965334H321.152a308.608 308.608 0 0 1-73.813333-10.965334c-45.354667-12.16-84.992-33.28-114.56-65.493333-38.954667-43.178667-54.186667-102.485333-44.8-174.08 25.386667-198.229333 220.8-427.221333 324.053333-472.277333 28.714667-11.818667 171.093333-11.818667 199.850667 0z m-91.221333 35.669333h-8.106667c-37.546667 0-73.941333 2.346667-81.706666 5.205333-19.114667 8.405333-89.898667 68.864-144.469334 131.541334-83.328 95.701333-138.88 199.168-151.893333 304.554666-7.850667 58.88 3.328 104.96 33.152 137.813334 37.333333 41.386667 94.165333 58.453333 143.573333 61.44l10.453334 0.426666h380.501333c51.712-1.066667 114.133333-17.493333 154.112-61.909333 30.250667-33.237333 42.069333-79.658667 34.304-137.813333-13.525333-105.258667-69.290667-208.682667-152.746667-304.512-54.272-62.293333-124.544-122.666667-143.36-131.413334-7.509333-2.816-38.741333-5.034667-73.813333-5.333333z m3.968 131.498667l4.992 4.949333v29.226667c12.074667 1.621333 23.552 4.352 34.346667 8.277333 12.245333 4.394667 23.082667 10.496 32.426666 18.304 9.429333 7.850667 17.152 17.621333 23.082667 29.269333 5.973333 11.733333 9.386667 25.472 10.325333 41.258667l-4.949333 5.248h-63.232l-4.949333-4.821333a40.448 40.448 0 0 0-9.941334-26.538667 28.757333 28.757333 0 0 0-17.109333-10.112v68.010667l7.082667 1.706666c3.754667 0.853333 7.765333 1.877333 11.946666 3.072 22.485333 5.973333 39.936 13.397333 52.394667 22.357334 12.373333 8.96 21.589333 18.389333 27.605333 28.330666 5.973333 9.898667 9.6 19.882667 10.709334 29.952 1.066667 9.472 1.578667 17.962667 1.578666 25.429334 0 7.04-1.706667 15.616-5.12 25.813333a86.272 86.272 0 0 1-18.645333 30.378667c-8.874667 9.813333-20.736 18.432-35.498667 25.941333-13.866667 7.125333-31.232 11.52-52.053333 13.312v32.512l-4.992 4.949333h-26.24l-4.992-4.949333v-32.554667c-32.128-2.986667-57.642667-13.312-76.373333-31.104-19.626667-18.645333-30.976-45.866667-34.048-81.322666l4.949333-5.376h62.805333l4.949334 5.034666c-0.256 15.36 3.754667 27.178667 11.946666 35.797334 7.168 7.424 15.744 12.586667 25.770667 15.488v-81.493334a106.837333 106.837333 0 0 0-10.538667-2.645333 370.346667 370.346667 0 0 1-32.938666-10.368 111.701333 111.701333 0 0 1-30.08-16.469333 77.781333 77.781333 0 0 1-21.632-26.112c-5.418667-10.496-8.106667-23.424-8.106667-38.741334 0-15.573333 3.072-29.44 9.216-41.514666 6.101333-11.946667 14.165333-22.058667 24.234667-30.208 9.941333-8.106667 21.461333-14.336 34.474666-18.773334 11.434667-3.84 23.253333-6.4 35.413334-7.509333v-29.013333l4.949333-4.992h26.24z m4.992 236.8v71.552a83.626667 83.626667 0 0 0 10.197333-2.688c5.248-1.706667 9.984-4.138667 14.122667-7.296a38.528 38.528 0 0 0 10.069333-11.434667 30.464 30.464 0 0 0 3.797334-15.616c0-9.898667-3.029333-16.981333-9.002667-21.632-5.802667-4.522667-15.573333-8.874667-29.184-12.885333z m-36.224-141.909334c-2.816 0.298667-5.546667 0.853333-8.277333 1.706667a34.090667 34.090667 0 0 0-11.264 5.930667 27.818667 27.818667 0 0 0-10.581334 23.381333c0 8.192 2.517333 14.208 7.552 18.474667 3.754667 3.114667 9.301333 5.973333 16.682667 8.362666l5.888 1.749334V541.44zM593.962667 0c33.536 0 61.013333 24.661333 64.298666 57.6l0.256 5.205333 45.141334 18.090667c14.933333 6.144 26.24 17.322667 32.469333 32.128a58.453333 58.453333 0 0 1-0.128 46.122667 32.512 32.512 0 0 1-3.285333 5.546666l-2.389334 2.688-111.189333 102.058667-6.954667-0.213333-25.173333-26.069334 0.170667-7.125333 106.453333-96.554667a5.418667 5.418667 0 0 0 0.085333-2.730666 29.098667 29.098667 0 0 0-0.981333-3.669334 17.237333 17.237333 0 0 0-5.205333-6.272l-2.474667-1.536-45.226667-17.706666-34.602666 63.061333-6.698667 2.005333-32.085333-16.981333-2.048-6.826667 43.178666-78.336 2.133334-6.058666a17.365333 17.365333 0 0 0-13.909334-15.573334l-4.096-0.384h-159.402666a18.56 18.56 0 0 0-17.194667 12.330667l-1.066667 1.365333 2.645334 7.082667 1.621333 0.213333 44.714667 80.512-2.005334 6.826667-32.128 16.981333-6.656-2.048-34.56-64.128-46.037333 18.602667a17.664 17.664 0 0 0-7.722667 7.125333 60.842667 60.842667 0 0 0-1.493333 4.778667l-1.109333 0.426667 107.776 98.645333 0.256 7.082667-25.258667 26.112-6.912 0.213333-111.36-102.229333c-3.413333-3.413333-4.906667-7.04-4.522667-10.666667-11.562667-27.477333 0.298667-59.648 26.965334-74.154667l5.546666-2.688 45.098667-18.005333A63.786667 63.786667 0 0 1 427.050667 0.298667L433.493333 0h160.512z" p-id="5052"></path></svg>