<?xml version="1.0" standalone="no"?><!DOCTYPE svg PUBLIC "-//W3C//DTD SVG 1.1//EN" "http://www.w3.org/Graphics/SVG/1.1/DTD/svg11.dtd"><svg t="1588065766938" class="icon" viewBox="0 0 1024 1024" version="1.1" xmlns="http://www.w3.org/2000/svg" p-id="3231" xmlns:xlink="http://www.w3.org/1999/xlink" width="200" height="200"><defs><style type="text/css"></style></defs><path d="M734.226 419.488H347.533l104.75-105.24a24.474 24.474 0 0 0-34.753-34.753L270.685 426.34a24.474 24.474 0 0 0 17.131 41.606h446.41a24.474 24.474 0 0 0 0-48.948z m0 136.076h-445.43a24.474 24.474 0 1 0 0 48.948h387.181l-104.26 105.24a24.474 24.474 0 1 0 34.753 34.753L753.315 597.66a24.474 24.474 0 0 0-17.131-41.606z" p-id="3233"></path></svg>