<?xml version="1.0" standalone="no"?><!DOCTYPE svg PUBLIC "-//W3C//DTD SVG 1.1//EN" "http://www.w3.org/Graphics/SVG/1.1/DTD/svg11.dtd"><svg t="1588066030496" class="icon" viewBox="0 0 1024 1024" version="1.1" xmlns="http://www.w3.org/2000/svg" p-id="6803" xmlns:xlink="http://www.w3.org/1999/xlink" width="200" height="200"><defs><style type="text/css"></style></defs><path d="M838.224 170.242H183.557c-37.726 0-66.576 28.85-66.576 66.576v550.364c0 37.726 28.85 66.576 66.576 66.576h654.667c37.726 0 66.576-28.85 66.576-66.576V236.818c0-35.507-31.069-66.576-66.576-66.576z m22.192 461.595H498.685c-8.877 0-17.754-6.657-17.754-17.753V405.478c0-8.877 6.658-17.754 17.754-17.754H760.55c13.316 0 22.192-8.877 22.192-22.192s-8.876-22.192-22.192-22.192H498.685c-33.288 0-62.138 26.63-62.138 62.138v208.606c0 33.288 26.63 62.137 62.138 62.137h361.73v110.96c0 13.316-8.876 22.193-22.191 22.193H183.557c-13.315 0-22.192-8.877-22.192-22.192V236.818c0-13.315 8.877-22.192 22.192-22.192h654.667c13.315 0 22.192 8.877 22.192 22.192v395.02z" fill="" p-id="6804"></path><path d="M580.795 438.766c-39.945 0-73.233 33.288-73.233 73.234s33.288 73.234 73.233 73.234c39.946 0 73.234-33.288 73.234-73.234s-33.288-73.234-73.234-73.234z m0 102.084c-15.534 0-28.85-13.316-28.85-28.85s13.316-28.85 28.85-28.85 28.85 13.316 28.85 28.85-13.315 28.85-28.85 28.85z" fill="" p-id="6805"></path></svg>